<?xml version="1.0" encoding="utf-8"?>
<!-- Generator: Adobe Illustrator 27.4.1, SVG Export Plug-In . SVG Version: 6.00 Build 0)  -->
<svg version="1.1" id="Layer_1" xmlns="http://www.w3.org/2000/svg" xmlns:xlink="http://www.w3.org/1999/xlink" x="0px" y="0px"
	 viewBox="0 0 36 36" style="enable-background:new 0 0 36 36;" xml:space="preserve">
<style type="text/css">
	.st0{fill:#EB403C;}
	.st1{fill:#FFFFFF;}
</style>
<rect class="st0" width="36" height="36"/>
<path class="st1" d="M16.07,26.61l-0.01,0.03c-0.48,0.84-0.72,1.27-1.06,1.59c-0.37,0.35-0.81,0.61-1.29,0.75
	c-0.44,0.12-0.94,0.12-1.93,0.12h-4.2c-0.88,0-1.32,0-1.59-0.17c-0.29-0.19-0.46-0.49-0.48-0.84c-0.02-0.31,0.2-0.7,0.64-1.46
	L16.52,8.33c0.44-0.78,0.67-1.17,0.95-1.31c0.3-0.15,0.67-0.15,0.97,0c0.28,0.14,0.51,0.53,0.95,1.31l2.13,3.72l0.01,0.02
	c0.48,0.83,0.72,1.26,0.82,1.7c0.12,0.48,0.12,1,0,1.48c-0.11,0.45-0.35,0.87-0.83,1.72L16.07,26.61L16.07,26.61L16.07,26.61z
	 M30.02,28.92c-0.27,0.18-0.71,0.18-1.6,0.18h-6.02c-0.89,0-1.34,0-1.6-0.17c-0.29-0.19-0.46-0.5-0.48-0.84
	c-0.02-0.31,0.2-0.69,0.64-1.45l0.01-0.02l3.01-5.16c0.44-0.76,0.67-1.14,0.94-1.28c0.3-0.15,0.66-0.15,0.96,0
	c0.27,0.14,0.49,0.5,0.91,1.22l0.03,0.06l3.02,5.16c0.02,0.02,0.03,0.05,0.05,0.07c0.42,0.72,0.63,1.09,0.62,1.39
	C30.48,28.42,30.3,28.73,30.02,28.92L30.02,28.92z"/>
</svg>
