<?xml version="1.0" encoding="utf-8"?>
<!-- Generator: Adobe Illustrator 27.5.0, SVG Export Plug-In . SVG Version: 6.00 Build 0)  -->
<svg version="1.1" id="Layer_1" xmlns="http://www.w3.org/2000/svg" xmlns:xlink="http://www.w3.org/1999/xlink" x="0px" y="0px"
	 viewBox="0 0 37 37" style="enable-background:new 0 0 37 37;" xml:space="preserve">
<style type="text/css">
	.st0{fill:#EDB92B;}
	.st1{clip-path:url(#SVGID_00000091732777402642277570000009375983710233184416_);}
	.st2{fill:#FFFFFF;}
</style>
<rect x="0" y="0" class="st0" width="37" height="37"/>
<g>
	<defs>
		<rect id="SVGID_1_" x="6" y="6" width="25" height="25"/>
	</defs>
	<clipPath id="SVGID_00000096744247558579419320000007265633740826620094_">
		<use xlink:href="#SVGID_1_"  style="overflow:visible;"/>
	</clipPath>
	<g style="clip-path:url(#SVGID_00000096744247558579419320000007265633740826620094_);">
		<path class="st2" d="M13.6,16.5l4.9-4.9l4.9,4.9l2.8-2.8L18.5,6l-7.7,7.7L13.6,16.5z M6,18.5l2.8-2.8l2.8,2.8l-2.8,2.8L6,18.5z
			 M13.6,20.5l4.9,4.9l4.9-4.9l2.8,2.8L18.5,31l-7.7-7.7L13.6,20.5 M25.4,18.5l2.8-2.8l2.8,2.8l-2.8,2.8L25.4,18.5z"/>
		<path class="st2" d="M21.4,18.5l-2.9-2.9l-2.1,2.1L16.1,18l-0.5,0.5v0l2.9,2.9L21.4,18.5z"/>
	</g>
</g>
</svg>
