<?xml version="1.0" encoding="utf-8"?>
<!-- Generator: Adobe Illustrator 16.0.4, SVG Export Plug-In . SVG Version: 6.00 Build 0)  -->
<!DOCTYPE svg PUBLIC "-//W3C//DTD SVG 1.1//EN" "http://www.w3.org/Graphics/SVG/1.1/DTD/svg11.dtd">
<svg version="1.1" id="Layer_1" xmlns="http://www.w3.org/2000/svg" xmlns:xlink="http://www.w3.org/1999/xlink" x="0px" y="0px"
	 width="38px" height="38px" viewBox="0 0 38 38" enable-background="new 0 0 38 38" xml:space="preserve">
<path fill="#E6FCFF" d="M10,0h18c5.523,0,10,4.477,10,10v18c0,5.523-4.477,10-10,10H10C4.477,38,0,33.523,0,28V10
	C0,4.477,4.477,0,10,0z"/>
<path fill="#4ED9DE" d="M9,26.99l7.5-7.511l4,4.001l7.09-7.971L29,16.92l-8.5,9.561l-4-4l-6,6.01L9,26.99z M10.5,22.49l6-6.011
	l4,4.001L29,10.92l-1.41-1.41l-7.09,7.97l-4-4L9,20.99L10.5,22.49z"/>
</svg>
