<?xml version="1.0" encoding="utf-8"?>
<!-- Generator: Adobe Illustrator 16.0.4, SVG Export Plug-In . SVG Version: 6.00 Build 0)  -->
<!DOCTYPE svg PUBLIC "-//W3C//DTD SVG 1.1//EN" "http://www.w3.org/Graphics/SVG/1.1/DTD/svg11.dtd">
<svg version="1.1" id="Layer_1" xmlns="http://www.w3.org/2000/svg" xmlns:xlink="http://www.w3.org/1999/xlink" x="0px" y="0px"
	 width="42px" height="42px" viewBox="0 0 42 42" enable-background="new 0 0 42 42" xml:space="preserve">
<g>
	<path fill="#627EEA" d="M21,42c11.598,0,21-9.402,21-21C42,9.402,32.598,0,21,0C9.402,0,0,9.402,0,21C0,32.598,9.402,42,21,42z"/>
	<path fill="#FFFFFF" fill-opacity="0.602" d="M21.653,5.252v11.642l9.839,4.397L21.653,5.252z"/>
	<path fill="#FFFFFF" d="M21.654,5.252l-9.841,16.039l9.841-4.397V5.252z"/>
	<path fill="#FFFFFF" fill-opacity="0.602" d="M21.653,28.834v7.911L31.5,23.123L21.653,28.834z"/>
	<path fill="#FFFFFF" d="M21.654,36.745v-7.912l-9.841-5.71L21.654,36.745z"/>
	<path fill="#FFFFFF" fill-opacity="0.2" d="M21.653,27.006l9.84-5.713l-9.84-4.395V27.006z"/>
	<path fill="#FFFFFF" fill-opacity="0.602" d="M11.812,21.293l9.841,5.713V16.898L11.812,21.293z"/>
</g>
</svg>
