<?xml version="1.0" encoding="utf-8"?>
<!-- Generator: Adobe Illustrator 27.5.0, SVG Export Plug-In . SVG Version: 6.00 Build 0)  -->
<svg version="1.1" id="Layer_1" xmlns="http://www.w3.org/2000/svg" xmlns:xlink="http://www.w3.org/1999/xlink" x="0px" y="0px"
	 viewBox="0 0 23 23" style="enable-background:new 0 0 23 23;" xml:space="preserve">
<style type="text/css">
	.st0{fill:#00CCFF;}
</style>
<g>
	<g>
		<path class="st0" d="M22.9,4.7c-0.7,0.3-1.5,0.5-2.3,0.6c0.4-0.1,0.9-0.7,1.1-1c0.3-0.4,0.6-0.9,0.8-1.3c0,0,0-0.1,0-0.1
			c0,0-0.1,0-0.1,0c-0.9,0.4-1.8,0.8-2.8,1c-0.1,0-0.1,0-0.2,0c-0.1-0.1-0.2-0.2-0.2-0.2c-0.4-0.3-0.8-0.6-1.3-0.8
			c-0.6-0.2-1.4-0.4-2.1-0.3c-0.7,0-1.3,0.2-1.9,0.5c-0.6,0.3-1.1,0.7-1.6,1.2c-0.4,0.5-0.8,1.1-0.9,1.8c-0.2,0.6-0.2,1.2,0,1.9
			c0,0.1,0,0.1-0.1,0.1C7.4,7.5,4.3,6.2,1.7,3.4c-0.1-0.1-0.2-0.1-0.3,0C0.3,5,0.9,7.6,2.3,8.8C2.5,9,2.6,9.2,2.9,9.3
			c-0.1,0-1-0.1-1.8-0.5c-0.1-0.1-0.2,0-0.2,0.1c0,0.2,0,0.3,0,0.5c0.2,1.6,1.4,3.1,3,3.7c0.2,0.1,0.4,0.1,0.6,0.2
			c-0.4,0.1-0.7,0.1-1.8,0.1c-0.1,0-0.2,0-0.1,0.2c0.8,2,2.5,2.7,3.8,3c0.2,0,0.3,0,0.5,0.1c0,0,0,0,0,0c-0.4,0.6-1.9,1.1-2.6,1.3
			c-1.2,0.4-2.6,0.6-3.9,0.5c-0.2,0-0.3,0-0.3,0c-0.1,0,0,0.1,0.1,0.1c0.3,0.2,0.5,0.3,0.8,0.5c0.8,0.4,1.7,0.8,2.6,1
			c4.7,1.2,10,0.3,13.5-3c2.8-2.6,3.7-6.2,3.7-9.8c0-0.1,0.2-0.2,0.3-0.3c0.7-0.5,1.3-1.1,1.8-1.8C23,4.8,23,4.7,22.9,4.7L22.9,4.7
			C23,4.6,23,4.6,22.9,4.7L22.9,4.7z"/>
	</g>
</g>
</svg>
