<?xml version="1.0" encoding="utf-8"?>
<!-- Generator: Adobe Illustrator 16.0.4, SVG Export Plug-In . SVG Version: 6.00 Build 0)  -->
<!DOCTYPE svg PUBLIC "-//W3C//DTD SVG 1.1//EN" "http://www.w3.org/Graphics/SVG/1.1/DTD/svg11.dtd">
<svg version="1.1" id="Layer_1" xmlns="http://www.w3.org/2000/svg" xmlns:xlink="http://www.w3.org/1999/xlink" x="0px" y="0px"
	 width="592.781px" height="592.783px" viewBox="-27 94 592.781 592.783" enable-background="new -27 94 592.781 592.783"
	 xml:space="preserve">
<path fill="#414D56" d="M373.792,327.392h-18v-36c0-50.4-39.602-90-86.4-90c-48.6,0-86.4,39.6-86.4,90v36h-18
	c-19.8,0-34.2,16.2-34.2,36v180c0,19.8,16.2,36,34.2,36h208.801c19.8,0,34.198-16.2,34.198-36v-180
	C407.991,343.592,391.792,327.392,373.792,327.392z M217.191,291.392c0-30.6,23.4-54,52.2-54s52.2,23.4,52.2,54v36h-104.4V291.392
	L217.191,291.392z M373.792,543.392H164.991v-180h208.801V543.392L373.792,543.392z M269.392,489.392c19.8,0,34.2-16.2,34.2-36
	s-16.2-36-34.2-36c-19.8,0-34.2,16.2-34.2,36S249.592,489.392,269.392,489.392z"/>
</svg>
