<?xml version="1.0" encoding="utf-8"?>
<!-- Generator: Adobe Illustrator 27.5.0, SVG Export Plug-In . SVG Version: 6.00 Build 0)  -->
<svg version="1.1" id="Layer_1" xmlns="http://www.w3.org/2000/svg" xmlns:xlink="http://www.w3.org/1999/xlink" x="0px" y="0px"
	 viewBox="0 0 34 34" style="enable-background:new 0 0 34 34;" xml:space="preserve">
<style type="text/css">
	.st0{fill:#414D56;fill-opacity:0.1;}
	.st1{fill:#414D56;}
</style>
<rect x="0" class="st0" width="34" height="34"/>
<path class="st1" d="M22.8,13.5h-1v-2c0-2.8-2.2-5-4.8-5c-2.7,0-4.8,2.2-4.8,5v2h-1c-1.1,0-1.9,0.9-1.9,2v10c0,1.1,0.9,2,1.9,2h11.6
	c1.1,0,1.9-0.9,1.9-2v-10C24.7,14.4,23.8,13.5,22.8,13.5z M14.1,11.5c0-1.7,1.3-3,2.9-3c1.6,0,2.9,1.3,2.9,3v2h-5.8V11.5z
	 M22.8,25.5H11.2v-10h11.6V25.5z M17,22.5c1.1,0,1.9-0.9,1.9-2c0-1.1-0.9-2-1.9-2c-1.1,0-1.9,0.9-1.9,2C15.1,21.6,15.9,22.5,17,22.5
	z"/>
</svg>
