<?xml version="1.0" encoding="utf-8"?>
<!-- Generator: Adobe Illustrator 16.0.4, SVG Export Plug-In . SVG Version: 6.00 Build 0)  -->
<!DOCTYPE svg PUBLIC "-//W3C//DTD SVG 1.1//EN" "http://www.w3.org/Graphics/SVG/1.1/DTD/svg11.dtd">
<svg version="1.1" id="Layer_1" xmlns="http://www.w3.org/2000/svg" xmlns:xlink="http://www.w3.org/1999/xlink" x="0px" y="0px"
	 width="34px" height="34px" viewBox="-1 0 34 34" enable-background="new -1 0 34 34" xml:space="preserve">
<path fill="#404C55" d="M22.889,11.9c-0.457,0-0.895-0.179-1.218-0.498c-0.323-0.319-0.505-0.751-0.505-1.202
	c0-6.103-2.945-6.8-5.166-6.8c-2.222,0-5.167,0.697-5.167,6.8c0,0.451-0.181,0.883-0.504,1.202C10.006,11.721,9.568,11.9,9.111,11.9
	c-0.457,0-0.895-0.179-1.218-0.498C7.57,11.083,7.389,10.651,7.389,10.2C7.389,1.326,12.779,0,16,0s8.611,1.326,8.611,10.2
	c0,0.451-0.182,0.883-0.505,1.202C23.783,11.721,23.346,11.9,22.889,11.9z"/>
<path fill="#404C55" d="M16,23.8c1.902,0,3.445-1.522,3.445-3.399c0-1.878-1.543-3.4-3.445-3.4s-3.444,1.522-3.444,3.4
	C12.556,22.277,14.098,23.8,16,23.8z"/>
<path fill="#404C55" d="M16,27.199c-0.457,0-0.895-0.178-1.218-0.497s-0.504-0.751-0.504-1.202v-3.4
	c0-0.451,0.182-0.883,0.504-1.201C15.105,20.579,15.543,20.4,16,20.4c0.457,0,0.895,0.179,1.218,0.498
	c0.323,0.318,0.505,0.75,0.505,1.201v3.4c0,0.451-0.182,0.883-0.505,1.202S16.457,27.199,16,27.199z"/>
<path fill="#404C55" d="M26.334,34H5.667c-1.37,0-2.684-0.537-3.653-1.494C1.044,31.55,0.5,30.253,0.5,28.9V15.3
	c0-1.353,0.544-2.65,1.513-3.606C2.982,10.737,4.296,10.2,5.667,10.2h20.667c1.369,0,2.684,0.537,3.652,1.494S31.5,13.948,31.5,15.3
	v13.6c0,1.353-0.545,2.649-1.514,3.605C29.018,33.463,27.703,34,26.334,34L26.334,34z M5.667,13.6c-0.457,0-0.895,0.179-1.218,0.498
	c-0.323,0.319-0.504,0.751-0.504,1.202v13.6c0,0.451,0.182,0.883,0.504,1.202C4.772,30.421,5.21,30.6,5.667,30.6h20.667
	c0.456,0,0.895-0.179,1.217-0.497c0.323-0.319,0.505-0.751,0.505-1.202V15.3c0-0.451-0.182-0.883-0.505-1.202
	c-0.322-0.319-0.761-0.498-1.217-0.498H5.667z"/>
</svg>
