<?xml version="1.0" encoding="utf-8"?>
<!-- Generator: Adobe Illustrator 16.0.4, SVG Export Plug-In . SVG Version: 6.00 Build 0)  -->
<!DOCTYPE svg PUBLIC "-//W3C//DTD SVG 1.1//EN" "http://www.w3.org/Graphics/SVG/1.1/DTD/svg11.dtd">
<svg version="1.1" id="Layer_1" xmlns="http://www.w3.org/2000/svg" xmlns:xlink="http://www.w3.org/1999/xlink" x="0px" y="0px"
	 width="20px" height="20px" viewBox="0 0 20 20" enable-background="new 0 0 20 20" xml:space="preserve">
<path fill="#56D7A2" d="M10,2.5c-4.139,0-7.5,3.36-7.5,7.5c0,4.14,3.36,7.5,7.5,7.5c4.14,0,7.5-3.36,7.5-7.5
	C17.5,5.86,14.14,2.5,10,2.5z M10,16c-3.308,0-6-2.692-6-6s2.692-6,6-6c3.309,0,6,2.692,6,6S13.308,16,10,16z M10.233,9.355
	C8.905,9.017,8.479,8.651,8.479,8.103c0-0.63,0.591-1.072,1.575-1.072c1.035,0,1.425,0.495,1.455,1.23h1.283
	c-0.039-1.005-0.654-1.928-1.868-2.228V4.75H9.176v1.267c-1.132,0.24-2.041,0.976-2.041,2.108c0,1.343,1.117,2.017,2.745,2.407
	c1.464,0.345,1.755,0.86,1.755,1.402c0,0.396-0.294,1.043-1.575,1.043c-1.2,0-1.672-0.541-1.74-1.23H7.03
	c0.076,1.275,1.02,1.995,2.145,2.228v1.275h1.756v-1.252c1.141-0.217,2.039-0.871,2.048-2.078
	C12.969,10.269,11.553,9.699,10.233,9.355z"/>
</svg>
