<?xml version="1.0" encoding="utf-8"?>
<!-- Generator: Adobe Illustrator 16.0.4, SVG Export Plug-In . SVG Version: 6.00 Build 0)  -->
<!DOCTYPE svg PUBLIC "-//W3C//DTD SVG 1.1//EN" "http://www.w3.org/Graphics/SVG/1.1/DTD/svg11.dtd">
<svg version="1.1" id="Layer_1" xmlns="http://www.w3.org/2000/svg" xmlns:xlink="http://www.w3.org/1999/xlink" x="0px" y="0px"
	 width="38px" height="38px" viewBox="0 0 38 38" enable-background="new 0 0 38 38" xml:space="preserve">
<path fill="#F1FBF8" d="M10,0h18c5.523,0,10,4.477,10,10v18c0,5.523-4.477,10-10,10H10C4.477,38,0,33.523,0,28V10
	C0,4.477,4.477,0,10,0z"/>
<path fill="#56D7A2" d="M19,9c-5.52,0-10,4.48-10,10s4.48,10,10,10s10-4.48,10-10S24.52,9,19,9z M19,27c-4.41,0-8-3.59-8-8
	s3.59-8,8-8c4.411,0,8,3.59,8,8S23.41,27,19,27z M19.31,18.141c-1.77-0.451-2.34-0.94-2.34-1.671c0-0.84,0.79-1.43,2.1-1.43
	c1.38,0,1.901,0.66,1.94,1.64h1.711c-0.051-1.34-0.871-2.57-2.49-2.97V12h-2.331v1.689c-1.51,0.32-2.72,1.301-2.72,2.811
	c0,1.79,1.49,2.689,3.66,3.21c1.95,0.46,2.34,1.149,2.34,1.87c0,0.529-0.391,1.39-2.1,1.39c-1.6,0-2.23-0.72-2.32-1.64h-1.72
	c0.1,1.7,1.36,2.66,2.86,2.97V26h2.341v-1.67c1.52-0.29,2.719-1.16,2.73-2.77C22.959,19.359,21.07,18.6,19.31,18.141z"/>
</svg>
