<?xml version="1.0" encoding="utf-8"?>
<!-- Generator: Adobe Illustrator 27.5.0, SVG Export Plug-In . SVG Version: 6.00 Build 0)  -->
<svg version="1.1" id="Layer_1" xmlns="http://www.w3.org/2000/svg" xmlns:xlink="http://www.w3.org/1999/xlink" x="0px" y="0px"
	 viewBox="0 0 37 37" style="enable-background:new 0 0 37 37;" xml:space="preserve">
<style type="text/css">
	.st0{fill:#8442E3;}
	.st1{fill:#FFFFFF;}
</style>
<rect x="0" y="0" class="st0" width="37" height="37"/>
<path class="st1" d="M30,18.9v4.9c0,0.3-0.1,0.6-0.2,0.9c-0.2,0.3-0.4,0.5-0.6,0.6l-4.3,2.4c-0.3,0.2-0.6,0.2-0.9,0.2
	c-0.3,0-0.6-0.1-0.9-0.2l-4.3-2.4c-0.3-0.2-0.5-0.4-0.6-0.6c-0.2-0.3-0.2-0.6-0.2-0.9v-1.4l2.2-1.3v2.4l3.8,2.2l3.8-2.2v-4.4
	l-3.8-2.2l-9,5.2c-0.3,0.2-0.6,0.2-0.9,0.2c-0.3,0-0.6-0.1-0.9-0.2l-4.3-2.5c-0.3-0.2-0.5-0.4-0.6-0.6C8.1,18.7,8,18.4,8,18.1v-4.9
	c0-0.3,0.1-0.6,0.2-0.9c0.2-0.3,0.4-0.5,0.6-0.6l4.3-2.4C13.4,9.1,13.7,9,14.1,9c0.3,0,0.6,0.1,0.9,0.2l4.3,2.4
	c0.3,0.2,0.5,0.4,0.6,0.6c0.2,0.3,0.2,0.6,0.2,0.9v1.4l-2.2,1.3v-2.4L14,11.2l-3.8,2.2v4.4l3.8,2.2l9-5.2c0.3-0.2,0.6-0.2,0.9-0.2
	c0.3,0,0.6,0.1,0.9,0.2l4.3,2.5c0.3,0.2,0.5,0.4,0.6,0.6C29.9,18.3,30,18.6,30,18.9L30,18.9z"/>
</svg>
