<?xml version="1.0" encoding="utf-8"?>
<!-- Generator: Adobe Illustrator 16.0.4, SVG Export Plug-In . SVG Version: 6.00 Build 0)  -->
<!DOCTYPE svg PUBLIC "-//W3C//DTD SVG 1.1//EN" "http://www.w3.org/Graphics/SVG/1.1/DTD/svg11.dtd">
<svg version="1.1" id="Layer_1" xmlns="http://www.w3.org/2000/svg" xmlns:xlink="http://www.w3.org/1999/xlink" x="0px" y="0px"
	 width="17.49px" height="17.49px" viewBox="0 0.255 17.49 17.49" enable-background="new 0 0.255 17.49 17.49"
	 xml:space="preserve">
<path fill="#404C55" fill-opacity="0.54" d="M12.5,11.255h-0.79l-0.28-0.271C12.41,9.845,13,8.365,13,6.755c0-3.59-2.91-6.5-6.5-6.5
	S0,3.165,0,6.755s2.91,6.5,6.5,6.5c1.61,0,3.09-0.59,4.23-1.569L11,11.965v0.79l5,4.99l1.49-1.49L12.5,11.255z M6.5,11.255
	c-2.49,0-4.5-2.01-4.5-4.5c0-2.49,2.01-4.5,4.5-4.5s4.5,2.01,4.5,4.5C11,9.245,8.99,11.255,6.5,11.255z"/>
</svg>
