<?xml version="1.0" encoding="utf-8"?>
<!-- Generator: Adobe Illustrator 27.5.0, SVG Export Plug-In . SVG Version: 6.00 Build 0)  -->
<svg version="1.1" id="Livello_1" xmlns="http://www.w3.org/2000/svg" xmlns:xlink="http://www.w3.org/1999/xlink" x="0px" y="0px"
	 viewBox="0 0 23 23" style="enable-background:new 0 0 23 23;" xml:space="preserve">
<style type="text/css">
	.st0{fill:#2DA4D7;}
</style>
<path class="st0" d="M5.7,13.1l-5.2-1.7c0,0-0.6-0.3-0.4-0.8c0-0.1,0.1-0.2,0.4-0.4c1.2-0.8,21.3-8,21.3-8s0.6-0.2,0.9-0.1
	c0.2,0.1,0.3,0.2,0.3,0.4c0,0.1,0.1,0.3,0,0.5c0,0.1,0,0.3,0,0.5c-0.1,2-3.8,16.8-3.8,16.8S19,21,18.2,21c-0.4,0-0.8-0.1-1.1-0.4
	c-1.5-1.3-6.9-4.9-8.1-5.7C9,14.8,9,14.8,9,14.7c0-0.1,0.1-0.2,0.1-0.2s9.3-8.3,9.5-9.1c0-0.1-0.1-0.1-0.2-0.1
	c-0.6,0.2-11.3,7-12.5,7.7C5.9,13.1,5.8,13.1,5.7,13.1z"/>
</svg>
